<svg xmlns="http://www.w3.org/2000/svg" width="1200" height="630" viewBox="0 0 1200 630" role="img" aria-label="Princess Mae D. Elfa">
  <defs>
    <linearGradient id="bg" x1="0" y1="0" x2="1" y2="1">
      <stop offset="0" stop-color="#0d1424"/>
      <stop offset="1" stop-color="#060a14"/>
    </linearGradient>
    <linearGradient id="accent" x1="0" y1="0" x2="1" y2="0">
      <stop offset="0" stop-color="#3b82f6"/>
      <stop offset="1" stop-color="#22d3ee"/>
    </linearGradient>
  </defs>
  <rect width="1200" height="630" fill="url(#bg)"/>
  <g stroke="#1e293b" stroke-width="1">
    <line x1="0" y1="0" x2="0" y2="630"/><line x1="44" y1="0" x2="44" y2="630"/><line x1="88" y1="0" x2="88" y2="630"/><line x1="132" y1="0" x2="132" y2="630"/><line x1="176" y1="0" x2="176" y2="630"/><line x1="220" y1="0" x2="220" y2="630"/><line x1="264" y1="0" x2="264" y2="630"/><line x1="308" y1="0" x2="308" y2="630"/><line x1="352" y1="0" x2="352" y2="630"/><line x1="396" y1="0" x2="396" y2="630"/><line x1="440" y1="0" x2="440" y2="630"/><line x1="484" y1="0" x2="484" y2="630"/><line x1="528" y1="0" x2="528" y2="630"/><line x1="572" y1="0" x2="572" y2="630"/><line x1="616" y1="0" x2="616" y2="630"/><line x1="660" y1="0" x2="660" y2="630"/><line x1="704" y1="0" x2="704" y2="630"/><line x1="748" y1="0" x2="748" y2="630"/><line x1="792" y1="0" x2="792" y2="630"/><line x1="836" y1="0" x2="836" y2="630"/><line x1="880" y1="0" x2="880" y2="630"/><line x1="924" y1="0" x2="924" y2="630"/><line x1="968" y1="0" x2="968" y2="630"/><line x1="1012" y1="0" x2="1012" y2="630"/><line x1="1056" y1="0" x2="1056" y2="630"/><line x1="1100" y1="0" x2="1100" y2="630"/><line x1="1144" y1="0" x2="1144" y2="630"/><line x1="1188" y1="0" x2="1188" y2="630"/>
    <line x1="0" y1="0" x2="1200" y2="0"/><line x1="0" y1="44" x2="1200" y2="44"/><line x1="0" y1="88" x2="1200" y2="88"/><line x1="0" y1="132" x2="1200" y2="132"/><line x1="0" y1="176" x2="1200" y2="176"/><line x1="0" y1="220" x2="1200" y2="220"/><line x1="0" y1="264" x2="1200" y2="264"/><line x1="0" y1="308" x2="1200" y2="308"/><line x1="0" y1="352" x2="1200" y2="352"/><line x1="0" y1="396" x2="1200" y2="396"/><line x1="0" y1="440" x2="1200" y2="440"/><line x1="0" y1="484" x2="1200" y2="484"/><line x1="0" y1="528" x2="1200" y2="528"/><line x1="0" y1="572" x2="1200" y2="572"/><line x1="0" y1="616" x2="1200" y2="616"/>
  </g>
  <circle cx="600" cy="-120" r="360" fill="#3b82f6" opacity="0.18"/>
  <rect x="80" y="165" width="18" height="300" rx="9" fill="url(#accent)"/>
  <text x="140" y="285" fill="#e6edf6" font-family="Segoe UI, system-ui, sans-serif" font-size="72" font-weight="700">Princess Mae D. Elfa</text>
  <text x="140" y="355" fill="#9fb0c7" font-family="Consolas, monospace" font-size="38">Full Stack Developer · AI Web Developer</text>
  <text x="140" y="435" fill="#22d3ee" font-family="Consolas, monospace" font-size="30">&lt;/ princess-mae-elfa &gt;</text>
</svg>