<svg xmlns="http://www.w3.org/2000/svg" width="1600" height="1000" viewBox="0 0 1600 1000" role="img" aria-label="DermaSculpt">
  <defs>
    <linearGradient id="bg" x1="0" y1="0" x2="1" y2="1">
      <stop offset="0" stop-color="#0d1424"/>
      <stop offset="1" stop-color="#060a14"/>
    </linearGradient>
    <linearGradient id="accent" x1="0" y1="0" x2="1" y2="0">
      <stop offset="0" stop-color="#6366f1"/>
      <stop offset="1" stop-color="#3b82f6"/>
    </linearGradient>
  </defs>
  <rect width="1600" height="1000" fill="url(#bg)"/>
  <g stroke="#1e293b" stroke-width="1">
    <line x1="0" y1="0" x2="0" y2="1000"/><line x1="44" y1="0" x2="44" y2="1000"/><line x1="88" y1="0" x2="88" y2="1000"/><line x1="132" y1="0" x2="132" y2="1000"/><line x1="176" y1="0" x2="176" y2="1000"/><line x1="220" y1="0" x2="220" y2="1000"/><line x1="264" y1="0" x2="264" y2="1000"/><line x1="308" y1="0" x2="308" y2="1000"/><line x1="352" y1="0" x2="352" y2="1000"/><line x1="396" y1="0" x2="396" y2="1000"/><line x1="440" y1="0" x2="440" y2="1000"/><line x1="484" y1="0" x2="484" y2="1000"/><line x1="528" y1="0" x2="528" y2="1000"/><line x1="572" y1="0" x2="572" y2="1000"/><line x1="616" y1="0" x2="616" y2="1000"/><line x1="660" y1="0" x2="660" y2="1000"/><line x1="704" y1="0" x2="704" y2="1000"/><line x1="748" y1="0" x2="748" y2="1000"/><line x1="792" y1="0" x2="792" y2="1000"/><line x1="836" y1="0" x2="836" y2="1000"/><line x1="880" y1="0" x2="880" y2="1000"/><line x1="924" y1="0" x2="924" y2="1000"/><line x1="968" y1="0" x2="968" y2="1000"/><line x1="1012" y1="0" x2="1012" y2="1000"/><line x1="1056" y1="0" x2="1056" y2="1000"/><line x1="1100" y1="0" x2="1100" y2="1000"/><line x1="1144" y1="0" x2="1144" y2="1000"/><line x1="1188" y1="0" x2="1188" y2="1000"/><line x1="1232" y1="0" x2="1232" y2="1000"/><line x1="1276" y1="0" x2="1276" y2="1000"/><line x1="1320" y1="0" x2="1320" y2="1000"/><line x1="1364" y1="0" x2="1364" y2="1000"/><line x1="1408" y1="0" x2="1408" y2="1000"/><line x1="1452" y1="0" x2="1452" y2="1000"/><line x1="1496" y1="0" x2="1496" y2="1000"/><line x1="1540" y1="0" x2="1540" y2="1000"/><line x1="1584" y1="0" x2="1584" y2="1000"/>
    <line x1="0" y1="0" x2="1600" y2="0"/><line x1="0" y1="44" x2="1600" y2="44"/><line x1="0" y1="88" x2="1600" y2="88"/><line x1="0" y1="132" x2="1600" y2="132"/><line x1="0" y1="176" x2="1600" y2="176"/><line x1="0" y1="220" x2="1600" y2="220"/><line x1="0" y1="264" x2="1600" y2="264"/><line x1="0" y1="308" x2="1600" y2="308"/><line x1="0" y1="352" x2="1600" y2="352"/><line x1="0" y1="396" x2="1600" y2="396"/><line x1="0" y1="440" x2="1600" y2="440"/><line x1="0" y1="484" x2="1600" y2="484"/><line x1="0" y1="528" x2="1600" y2="528"/><line x1="0" y1="572" x2="1600" y2="572"/><line x1="0" y1="616" x2="1600" y2="616"/><line x1="0" y1="660" x2="1600" y2="660"/><line x1="0" y1="704" x2="1600" y2="704"/><line x1="0" y1="748" x2="1600" y2="748"/><line x1="0" y1="792" x2="1600" y2="792"/><line x1="0" y1="836" x2="1600" y2="836"/><line x1="0" y1="880" x2="1600" y2="880"/><line x1="0" y1="924" x2="1600" y2="924"/><line x1="0" y1="968" x2="1600" y2="968"/>
  </g>
  <circle cx="800" cy="-120" r="360" fill="#6366f1" opacity="0.18"/>
  <rect x="80" y="350" width="18" height="300" rx="9" fill="url(#accent)"/>
  <text x="140" y="470" fill="#e6edf6" font-family="Segoe UI, system-ui, sans-serif" font-size="72" font-weight="700">DermaSculpt</text>
  <text x="140" y="540" fill="#9fb0c7" font-family="Consolas, monospace" font-size="38">AI Triage Panel</text>
  <text x="140" y="620" fill="#3b82f6" font-family="Consolas, monospace" font-size="30">&lt;/ princess-mae-elfa &gt;</text>
</svg>